<svg class="svg" viewBox="0 0 100 100" xmlns="http://www.w3.org/2000/svg">
<path d="M34.6667 10H12C10.8954 10 10 10.8954 10 12V34.6667C10 35.7712 10.8954 36.6667 12 36.6667H16.8889C17.9935 36.6667 18.8889 35.7712 18.8889 34.6667V20.8889C18.8889 19.7843 19.7843 18.8889 20.8889 18.8889H34.6667C35.7712 18.8889 36.6667 17.9935 36.6667 16.8889V12C36.6667 10.8954 35.7712 10 34.6667 10Z" fill="inherit"/>
<path d="M88 10H65.3333C64.2288 10 63.3333 10.8954 63.3333 12V16.8889C63.3333 17.9935 64.2288 18.8889 65.3333 18.8889H79.1111C80.2157 18.8889 81.1111 19.7843 81.1111 20.8889V34.6667C81.1111 35.7712 82.0065 36.6667 83.1111 36.6667H88C89.1046 36.6667 90 35.7712 90 34.6667V12C90 10.8954 89.1046 10 88 10Z" fill="inherit"/>
<path d="M65.3333 90H88C89.1046 90 90 89.1046 90 88V65.3333C90 64.2288 89.1046 63.3333 88 63.3333H83.1111C82.0065 63.3333 81.1111 64.2288 81.1111 65.3333V79.1111C81.1111 80.2157 80.2157 81.1111 79.1111 81.1111H65.3333C64.2288 81.1111 63.3333 82.0065 63.3333 83.1111V88C63.3333 89.1046 64.2288 90 65.3333 90Z" fill="inherit"/>
<path d="M36.6667 88V83.1111C36.6667 82.0065 35.7712 81.1111 34.6667 81.1111H20.8889C19.7843 81.1111 18.8889 80.2157 18.8889 79.1111V65.3333C18.8889 64.2288 17.9935 63.3333 16.8889 63.3333H12C10.8954 63.3333 10 64.2288 10 65.3333V88C10 89.1046 10.8954 90 12 90H34.6667C35.7712 90 36.6667 89.1046 36.6667 88Z" fill="inherit"/>
</svg>
