<svg class="svg" viewBox="0 0 100 100" xmlns="http://www.w3.org/2000/svg">
<path fill-rule="evenodd" clip-rule="evenodd" d="M39.1528 11C39.1528 8.79086 40.9436 7 43.1528 7H56.8475C59.0566 7 60.8475 8.79086 60.8475 11V16.7479C60.8475 18.4473 61.9321 19.9392 63.4809 20.6387C65.4061 21.5082 67.2308 22.5582 68.933 23.7669C70.3057 24.7417 72.1206 24.9302 73.5819 24.0941L78.7078 21.1612C80.6147 20.0702 83.0446 20.7212 84.1505 22.6195L90.9707 34.3264C92.0889 36.2458 91.429 38.7086 89.5009 39.8118L84.4661 42.6926C82.9891 43.5376 82.2333 45.223 82.3954 46.9169C82.4925 47.9317 82.5422 48.9601 82.5422 50C82.5422 51.0399 82.4925 52.0683 82.3954 53.083C82.2333 54.7769 82.9891 56.4623 84.4661 57.3073L89.5009 60.1881C91.429 61.2913 92.0889 63.7541 90.9707 65.6735L84.1505 77.3803C83.0446 79.2787 80.6147 79.9297 78.7078 78.8387L73.582 75.9059C72.1207 75.0698 70.3058 75.2583 68.933 76.233C67.2308 77.4417 65.4061 78.4918 63.4809 79.3613C61.9321 80.0608 60.8475 81.5527 60.8475 83.2521V89C60.8475 91.2091 59.0566 93 56.8475 93H43.1528C40.9436 93 39.1528 91.2091 39.1528 89V83.2521C39.1528 81.5527 38.0681 80.0608 36.5194 79.3613C34.5941 78.4918 32.7693 77.4417 31.0671 76.233C29.6944 75.2582 27.8794 75.0697 26.4181 75.9058L21.2922 78.8387C19.3853 79.9297 16.9554 79.2787 15.8495 77.3803L9.02932 65.6735C7.91113 63.7541 8.57103 61.2913 10.4991 60.1881L15.5341 57.3072C17.0111 56.4622 17.7669 54.7768 17.6048 53.0829C17.5077 52.0682 17.4581 51.0399 17.4581 50C17.4581 48.9601 17.5077 47.9317 17.6048 46.917C17.7669 45.2231 17.0111 43.5377 15.5341 42.6927L10.4991 39.8118C8.57102 38.7086 7.91113 36.2458 9.02932 34.3264L15.8495 22.6195C16.9554 20.7212 19.3853 20.0702 21.2922 21.1612L26.4182 24.0942C27.8795 24.9303 29.6945 24.7417 31.0672 23.767C32.7694 22.5583 34.5941 21.5082 36.5194 20.6387C38.0681 19.9392 39.1528 18.4473 39.1528 16.7479V11ZM50.0001 66.125C58.9863 66.125 66.2711 58.9056 66.2711 50C66.2711 41.0944 58.9863 33.875 50.0001 33.875C41.0139 33.875 33.7291 41.0944 33.7291 50C33.7291 58.9056 41.0139 66.125 50.0001 66.125Z" fill="inherit"/>
</svg>
