<svg class="svg" viewBox="0 0 100 100" xmlns="http://www.w3.org/2000/svg">
<path d="M88 63.3333H65.3333C64.2288 63.3333 63.3333 64.2288 63.3333 65.3333V88C63.3333 89.1046 64.2288 90 65.3333 90H70.2222C71.3268 90 72.2222 89.1046 72.2222 88V74.2222C72.2222 73.1176 73.1177 72.2222 74.2222 72.2222H88C89.1046 72.2222 90 71.3268 90 70.2222V65.3333C90 64.2288 89.1046 63.3333 88 63.3333Z" fill="inherit"/>
<path d="M34.6667 63.3333H12C10.8954 63.3333 10 64.2288 10 65.3333V70.2222C10 71.3268 10.8954 72.2222 12 72.2222H25.7778C26.8823 72.2222 27.7778 73.1177 27.7778 74.2222V88C27.7778 89.1046 28.6732 90 29.7778 90H34.6667C35.7712 90 36.6667 89.1046 36.6667 88V65.3333C36.6667 64.2288 35.7712 63.3333 34.6667 63.3333Z" fill="inherit"/>
<path d="M12 36.6667H34.6667C35.7712 36.6667 36.6667 35.7712 36.6667 34.6667V12C36.6667 10.8954 35.7712 10 34.6667 10H29.7778C28.6732 10 27.7778 10.8954 27.7778 12V25.7778C27.7778 26.8823 26.8823 27.7778 25.7778 27.7778H12C10.8954 27.7778 10 28.6732 10 29.7778V34.6667C10 35.7712 10.8954 36.6667 12 36.6667Z" fill="inherit"/>
<path d="M90 34.6667V29.7778C90 28.6732 89.1046 27.7778 88 27.7778H74.2222C73.1177 27.7778 72.2222 26.8823 72.2222 25.7778V12C72.2222 10.8954 71.3268 10 70.2222 10H65.3333C64.2288 10 63.3333 10.8954 63.3333 12V34.6667C63.3333 35.7712 64.2288 36.6667 65.3333 36.6667H88C89.1046 36.6667 90 35.7712 90 34.6667Z" fill="inherit"/>
</svg>
