<svg class="svg" viewBox="0 0 100 100" xmlns="http://www.w3.org/2000/svg">
<path d="M75.2296 80.8607C73.2227 82.0926 70.7569 80.9026 69.961 78.6148C69.1969 76.4179 70.2642 74.0016 72.1184 72.697C78.4427 68.247 82.7172 59.7502 82.7172 50C82.7172 40.2496 78.4427 31.7529 72.1182 27.3028C70.2641 25.9982 69.1967 23.582 69.9609 21.3851C70.7567 19.0973 73.2225 17.9073 75.2295 19.1391C84.5932 24.8863 91 36.5484 91 50C91 63.4515 84.5932 75.1135 75.2296 80.8607Z" fill="inherit"/>
<path d="M68.0366 66.4306C66.9274 67.066 65.5765 66.7362 64.679 65.8041C63.4272 64.504 63.8791 62.2185 65.2208 61.0205C68.0264 58.5156 69.8431 54.5118 69.8431 50C69.8431 45.4882 68.0264 41.4844 65.2208 38.9795C63.879 37.7816 63.4271 35.496 64.679 34.1959C65.5765 33.2638 66.9274 32.934 68.0366 33.5694C73.2592 36.561 76.505 42.7947 76.505 50C76.505 57.2052 73.2592 63.4389 68.0366 66.4306Z" fill="inherit"/>
<path d="M57.8687 84.4892V15.3943C57.8687 12.9674 55.9884 11 53.669 11C52.7656 11 51.8864 11.3048 51.1617 11.8691L25.5657 31.8H17.2828C12.7083 31.8 9 35.6802 9 40.4667V62.1333C9 66.9198 12.7083 70.8 17.2828 70.8H25.5657L51.2052 88.2692C51.9052 88.7461 52.7224 89 53.5576 89C55.9386 89 57.8687 86.9804 57.8687 84.4892Z" fill="inherit"/>
</svg>
