<svg class="svg" viewBox="0 0 100 100" xmlns="http://www.w3.org/2000/svg">
<path d="M82.7172 50C82.7172 59.7502 78.4427 68.247 72.1184 72.697C70.2642 74.0016 69.1968 76.4179 69.961 78.6148C70.7569 80.9026 73.2227 82.0926 75.2296 80.8607C84.5932 75.1135 91 63.4515 91 50C91 42.6538 89.0892 35.8414 85.8295 30.2345C85.1983 29.1489 83.7186 29.0092 82.8306 29.8972L79.594 33.1338C78.9421 33.7857 78.8271 34.7951 79.259 35.6096C81.4439 39.7302 82.7172 44.6784 82.7172 50Z" fill="inherit"/>
<path d="M69.8431 50C69.8431 54.5118 68.0264 58.5156 65.2208 61.0205C63.8791 62.2185 63.4272 64.504 64.679 65.8041C65.5765 66.7362 66.9274 67.066 68.0366 66.4306C73.2592 63.4389 76.505 57.2052 76.505 50C76.505 46.881 75.8968 43.944 74.7832 41.3732C74.2679 40.1834 72.7319 39.9959 71.8151 40.9127L71.1599 41.568L69.6397 43.0881C69.0722 43.6557 68.9104 44.5043 69.1454 45.2718C69.5968 46.746 69.8431 48.3386 69.8431 50Z" fill="inherit"/>
<path d="M51.1617 11.8691L26.1076 31.378C25.7564 31.6515 25.3239 31.8 24.8788 31.8H17.2828C12.7083 31.8 9 35.6802 9 40.4667V62.1333C9 66.3079 11.8209 69.7932 15.5769 70.616C16.1608 70.7439 16.7542 70.5178 17.1768 70.0952L57.2829 29.9891C57.658 29.614 57.8687 29.1053 57.8687 28.5749V15.3943C57.8687 12.9674 55.9884 11 53.669 11C52.7656 11 51.8864 11.3048 51.1617 11.8691Z" fill="inherit"/>
<path d="M51.2052 88.2692C51.9052 88.7461 52.7224 89 53.5576 89C55.9386 89 57.8687 86.9804 57.8687 84.4892V59.6876C57.8687 57.9058 55.7144 57.0135 54.4545 58.2734L37.0047 75.7231C36.1181 76.6097 36.2566 78.0842 37.2928 78.7902L51.2052 88.2692Z" fill="inherit"/>
<path d="M86.2958 15.4062L84.8816 13.992C83.7101 12.8204 81.8106 12.8204 80.639 13.992L14.171 80.46C12.9994 81.6316 12.9994 83.5311 14.171 84.7026L15.5852 86.1168C16.7567 87.2884 18.6562 87.2884 19.8278 86.1168L86.2958 19.6488C87.4674 18.4772 87.4674 16.5777 86.2958 15.4062Z" fill="inherit"/>
</svg>
